<svg width="60" height="52" viewBox="0 0 60 52" fill="none" xmlns="http://www.w3.org/2000/svg">
<path d="M58.8782 23.2991C60.245 24.6659 60.245 26.882 58.8782 28.2488L36.6043 50.5227C35.2375 51.8895 33.0214 51.8895 31.6546 50.5227C30.2877 49.1558 30.2877 46.9398 31.6546 45.5729L51.4536 25.7739L31.6546 5.97494C30.2877 4.6081 30.2877 2.39202 31.6546 1.02519C33.0214 -0.341646 35.2375 -0.341646 36.6043 1.02519L58.8782 23.2991ZM3.50049 29.2739C1.56749 29.2739 0.000488281 27.7069 0.000488281 25.7739C0.000488281 23.8409 1.56749 22.2739 3.50049 22.2739V25.7739V29.2739ZM56.4033 25.7739V29.2739H3.50049V25.7739V22.2739H56.4033V25.7739Z" fill="white"/>
</svg>
