<svg width="196" height="169" viewBox="0 0 196 169" fill="none" xmlns="http://www.w3.org/2000/svg">
<path d="M195.117 120.582C194.724 133 191.795 143.247 186.155 151.907C179.841 161.599 170.732 167.091 159.818 167.801C151.151 168.363 142.273 168.229 133.69 168.096C130.895 168.054 128.093 168.011 125.297 167.99C123.535 167.976 121.701 167.435 119.826 166.838C112.775 164.591 110.141 161.023 110.113 153.663C110.085 146.667 110.092 139.559 110.099 132.684C110.106 129.642 110.106 126.601 110.106 123.56C110.106 120.519 110.106 117.71 110.099 114.788C110.092 107.68 110.085 100.334 110.12 93.1065C110.127 91.1329 110.661 89.665 111.658 88.8573C112.845 87.9021 114.552 88.0145 115.767 88.2744C117.403 88.6255 119.068 89.4964 119.04 93.2891C119.004 97.8052 118.885 102.398 118.766 106.844C118.695 109.548 118.625 112.259 118.569 114.963C118.534 116.888 118.478 118.812 118.429 120.73C118.162 130.471 117.888 140.536 119.601 150.432C119.749 151.275 119.981 152.089 120.198 152.876L120.395 153.564C121.287 156.844 123.303 158.333 126.702 158.291C130.706 158.221 134.793 158.256 138.74 158.291C144.78 158.34 151.024 158.396 157.163 158.094C170.922 157.413 179.673 150.263 183.164 136.855C183.964 133.772 184.421 131.398 184.652 129.151C188.199 94.2513 178.907 62.1823 157.043 33.8358C149.198 23.6658 139.969 17.9698 128.823 16.4106C125.319 15.919 122.713 15.6732 121.104 17.0076C119.63 18.2227 119.257 20.3999 119.054 24.2418C118.941 26.4612 118.976 28.7016 119.011 30.8719C119.04 32.5013 119.068 34.1799 119.033 35.8234C118.997 37.4107 118.766 38.7803 118.344 39.89C117.642 41.7512 116.209 42.6361 114.207 42.4465C111.988 42.2358 110.232 40.6485 110.211 38.8435C110.197 37.804 110.176 36.7575 110.162 35.718C110.064 29.7622 109.965 23.6026 110.492 17.6327C111.019 11.6206 115.893 6.91495 122.341 6.19154C130.432 5.27849 138.466 7.36445 146.93 12.5477C156.72 18.5528 165.043 27.1705 172.383 38.8996C188.361 64.4509 196.009 91.9266 195.117 120.582Z" fill="white"/>
<path d="M85.2842 148.571C85.221 151.464 84.7996 154.604 83.9146 158.733C82.7206 164.282 78.9842 167.541 73.6534 167.674C71.6798 167.73 69.6992 167.787 67.7186 167.843C56.3687 168.18 44.6396 168.531 33.2967 167.365C18.7723 165.876 8.74985 156.598 3.5174 139.791C0.0337777 128.617 -0.851175 116.298 0.813378 102.132C3.26456 81.1456 9.43815 61.8171 19.1445 44.6729C27.6359 29.6779 37.9603 18.8407 50.7078 11.5504C57.2537 7.80694 63.5186 5.9668 69.7554 5.9668C70.7667 5.9668 71.7851 6.00894 72.7965 6.10727C79.0544 6.71128 82.6995 9.80861 83.9357 15.5889C84.7293 19.2832 84.926 23.2163 85.1226 27.023C85.1718 28.0063 85.221 28.9966 85.2842 29.9869C85.4387 32.5154 85.3193 35.0649 85.1577 37.9023C85.0032 40.501 83.3457 42.299 80.9296 42.4816C78.6821 42.6432 76.835 41.0699 76.4417 38.6398C76.1397 36.8278 76.0905 34.8963 76.0413 33.0351C76.0203 32.3889 76.0062 31.7428 75.9781 31.1037C75.7885 26.5735 75.6691 22.9143 75.5848 19.5993C75.5216 17.1411 74.2925 15.9963 71.7149 15.9963H71.6587C63.055 15.9963 55.9192 18.2999 49.8439 23.0408C38.171 32.1431 29.2372 44.1953 21.7221 60.9673C13.7857 78.6733 9.81742 98.1423 9.92277 118.826C9.95788 127.058 10.9974 133.618 13.1676 139.468C17.7258 151.71 26.6736 158.389 39.0489 158.783C46.4446 159.014 53.9597 158.776 61.2219 158.551C64.86 158.431 68.6246 158.319 72.3189 158.256C75.4092 158.207 75.5216 155.636 75.5637 154.786C75.6691 152.419 75.7955 150.045 75.9219 147.679C76.2169 142.116 76.5259 136.357 76.5681 130.682C76.6243 123.56 76.5049 116.319 76.3925 109.31C76.3293 105.313 76.2661 101.169 76.231 97.1028C76.2169 95.8667 76.4346 94.5533 76.6453 93.2891L76.7296 92.7694C77.0176 90.9714 77.6497 89.7282 78.6049 89.0961C79.5882 88.4359 81.0561 88.3235 82.9524 88.766C84.5748 89.1523 85.1086 90.0864 85.1367 92.6149C85.1999 99.0202 85.2491 105.433 85.2912 111.838L85.3193 116.059C85.3263 117.337 85.3263 118.616 85.3263 119.887V122.703H85.3474C85.3544 124.916 85.3614 127.128 85.3685 129.34C85.3965 135.647 85.4246 142.165 85.2842 148.571Z" fill="white"/>
<path d="M158.068 96.3933C157.373 97.8401 156.088 98.4582 154.627 98.0438C150.258 96.8077 146.543 95.5364 143.27 94.1598L142.785 93.9562C140.278 92.9026 139.133 92.418 138.136 93.0782C137.132 93.7455 137.132 95.0027 137.132 97.7699V97.9736C137.132 98.9568 137.132 99.9401 137.111 100.923C137.089 103.178 137.061 105.51 137.16 107.813C137.251 109.836 136.226 110.391 134.252 111.283C133.683 111.543 133.093 111.81 132.538 112.154C131.4 112.849 130.909 112.47 129.68 111.121C129.525 110.946 129.364 110.777 129.209 110.609C127.531 108.86 126.814 106.591 126.877 103.269C126.948 99.4555 127.046 94.4197 127.215 89.2996C127.313 86.3989 126.273 83.9829 123.857 81.4755C120.03 77.5003 116.279 73.3002 112.662 69.2337C110.997 67.3725 109.333 65.5042 107.654 63.6501C107.303 63.2638 106.952 62.8705 106.601 62.4771C105.168 60.8828 103.686 59.2323 102.092 57.7293C101.635 57.3009 101.249 56.9286 100.919 56.6056C99.6967 55.3975 98.9031 54.8286 98.1235 54.8286C97.2807 54.8286 96.4519 55.5099 95.1034 56.7882L94.387 57.4694C91.2405 60.4193 88.2556 63.6079 85.3689 66.6982C84.2382 67.9133 83.1074 69.1283 81.9626 70.3293C80.7264 71.6216 79.5044 72.928 78.2823 74.2344C75.9646 76.7136 73.5625 79.2702 71.1324 81.7003C68.8428 83.9899 67.8384 86.413 67.9649 89.3207C68.1405 93.2187 68.2669 97.208 68.3371 101.527C68.3722 103.382 68.3793 105.194 68.1334 106.935C67.7893 109.366 64.397 112.575 63.1117 112.491C61.398 112.393 58.2796 108.923 58.118 106.423C58.0127 104.758 58.0337 103.037 58.0548 101.373C58.0618 100.628 58.0689 99.8839 58.0689 99.1465V91.0976L56.5588 91.8281C55.6036 92.2916 54.6836 92.6919 53.7916 93.0853C51.9023 93.914 50.1113 94.7006 48.531 95.8174C45.5461 97.9244 42.3855 98.416 38.8527 97.3063C38.2417 97.1167 37.3778 96.2388 37.2444 95.6699C36.5982 92.9659 37.5604 90.8167 40.0257 89.4541C43.3969 87.6 46.4381 85.9565 49.5986 84.6922C56.615 81.8759 62.7465 77.5284 68.3512 71.4109C71.4696 68.0116 74.6863 64.5842 77.7977 61.2761C82.0609 56.739 86.4716 52.0473 90.6997 47.3206C92.0904 45.7614 93.0245 43.1346 93.0736 40.6202C93.179 35.4721 93.1439 30.2396 93.1017 25.1827C93.0736 21.4041 93.0455 17.5061 93.0807 13.6783C93.0947 11.6416 93.2843 9.55559 93.4599 7.53987C93.6004 6.02983 93.7338 4.46361 93.8041 2.91143C93.8884 1.16962 94.7241 0.432158 97.0068 0.0880095C100.441 -0.424701 101.122 1.44353 101.34 2.06159C101.853 3.4733 102.12 5.19404 102.12 7.17465V9.11312C102.141 18.3349 102.155 27.8657 101.895 37.2349C101.769 42.0179 103.237 45.8527 106.524 49.3012C111.25 54.2597 115.998 59.3658 120.584 64.3032C124.574 68.6016 128.703 73.0404 132.805 77.3738C134.336 78.9892 136.373 80.113 137.974 80.9066C140.088 81.9531 142.266 82.9504 144.366 83.9127C146.838 85.0434 149.402 86.2093 151.853 87.4665C153.777 88.4498 155.702 89.8053 157.584 91.498C158.897 92.6779 159.059 94.3214 158.068 96.3933Z" fill="white"/>
</svg>

