<svg width="59" height="48" viewBox="0 0 59 48" fill="none" xmlns="http://www.w3.org/2000/svg">
<path opacity="0.62" d="M5.88049 47.0439C4.26336 47.0439 2.87899 46.4681 1.72739 45.3165C0.575798 44.165 0 42.7806 0 41.1635V5.88049C0 4.26336 0.575798 2.87899 1.72739 1.72739C2.87899 0.575798 4.26336 0 5.88049 0H52.9244C54.5416 0 55.9259 0.575798 57.0775 1.72739C58.2291 2.87899 58.8049 4.26336 58.8049 5.88049V41.1635C58.8049 42.7806 58.2291 44.165 57.0775 45.3165C55.9259 46.4681 54.5416 47.0439 52.9244 47.0439H5.88049ZM29.4025 26.4622L5.88049 11.761V41.1635H52.9244V11.761L29.4025 26.4622ZM29.4025 20.5817L52.9244 5.88049H5.88049L29.4025 20.5817ZM5.88049 11.761V5.88049V41.1635V11.761Z" fill="#E3E3E3"/>
</svg>

