<svg width="432" height="390" viewBox="0 0 432 390" fill="none" xmlns="http://www.w3.org/2000/svg">
<path d="M260.305 8.18786C277.96 -1.99484 299.868 0.58404 311.544 19.2083L311.977 19.913C317.199 28.6019 318.884 38.3799 317.87 47.9044C335.982 52.5178 353.54 60.012 371.636 70.3545C391.252 81.558 407.963 95.524 414.275 116.35C417.526 127.085 418.529 137.171 416.49 146.609C416.468 146.709 416.443 146.809 416.421 146.909C431.09 165.897 433.684 190.152 421.301 212.117C417.087 219.591 411.762 226.425 405.801 232.655C405.58 238.586 404.728 244.554 403.372 250.458C401.703 257.727 399.267 264.914 396.299 271.838C396.978 277.718 396.919 283.768 395.975 289.983C391.649 318.444 371.365 338.361 349.58 351.564C321.271 368.718 293.328 378.04 260.388 377.589C238.587 377.29 221.52 372.268 203.697 363.723C196.948 370.305 188.808 375.461 177.234 378.226C138.011 387.578 99.1359 363.014 79.1302 326.606C74.4291 318.056 70.9923 309.277 68.7262 300.364C51.3205 292.805 35.7925 281.375 25.1489 267.13L24.4834 266.227C11.5783 248.474 4.22076 223.812 13.2432 202.799C23.6851 178.527 45.2221 166.965 70.1095 160.623C77.1083 158.837 84.0663 157.637 91.0023 156.929C94.7997 138.111 102.291 120.397 115.13 105.963C145.865 71.4008 186.328 53.9348 231.827 46.1741C235.08 29.9104 245.174 16.915 260.305 8.18786ZM71.6446 301.589C73.8552 309.674 77.06 317.635 81.3284 325.398C100.983 361.168 138.873 384.793 176.651 375.786L177.6 375.551C187.772 372.959 195.112 368.416 201.295 362.552C192.896 358.396 184.275 353.476 174.867 347.914C165.366 342.298 155.816 335.181 146.738 326.96C132.452 328.165 118.539 328.807 105.248 328.874L105.235 326.366C117.75 326.303 130.818 325.727 144.23 324.65C139.255 319.987 134.439 314.998 129.871 309.748C115.688 311.636 100.652 310.36 86.2343 306.484C81.2856 305.153 76.4027 303.514 71.6446 301.589ZM387.156 249.059C376.025 257.454 364.403 264.292 354.406 269.722C319.495 288.677 277.449 303.234 234.389 313.164C230.495 324.024 226.012 334.683 219.158 344.414C214.725 350.708 210.488 356.652 205.563 361.832C222.882 370.045 239.4 374.793 260.422 375.081C292.801 375.524 320.287 366.381 348.28 349.419C369.768 336.396 389.329 317.015 393.495 289.606C394.167 285.18 394.372 280.836 394.168 276.574C388.924 287.704 382.392 298.017 375.589 306.718C351.668 337.308 314.88 352.073 278.413 360.237L277.865 357.79C314.127 349.672 350.225 335.081 373.613 305.173C381.138 295.549 388.31 283.941 393.725 271.473C392.752 263.717 390.446 256.245 387.156 249.059ZM231.48 313.827C204.209 319.979 176.587 324.276 150.165 326.662C158.583 334.102 167.381 340.576 176.143 345.755C185.828 351.48 194.633 356.495 203.185 360.686C208.188 355.541 212.499 349.512 217.107 342.969C223.491 333.907 227.758 324.042 231.48 313.827ZM233.869 185.699C231.159 190.619 228.676 195.643 226.289 200.732C220.534 213 215.289 225.754 208.8 238.111C196.105 262.29 186.103 285.025 159.556 300.025L158.279 300.734C150.442 305.007 141.827 307.816 132.821 309.309C137.527 314.633 142.491 319.677 147.615 324.368C175.139 321.994 204.024 317.524 232.484 311.027C234.616 305 236.613 298.867 238.785 292.717L239.867 289.686C251.16 258.388 265.824 227.615 283.994 199.47C284.408 198.827 284.82 198.183 285.231 197.537C268.424 194.889 251.073 190.509 233.869 185.699ZM346.521 197.907C329.222 200.953 310.992 200.863 293.464 198.699C291.631 198.473 289.789 198.223 287.941 197.952L286.101 200.83C267.465 229.698 252.527 261.371 241.15 293.554C239.181 299.127 237.338 304.761 235.381 310.359C277.696 300.484 318.936 286.126 353.209 267.517C363.321 262.025 374.976 255.148 386.057 246.744C378.834 232.042 367.57 218.566 355.285 206.367L353.586 204.692C351.296 202.444 348.936 200.181 346.521 197.907ZM88.1549 203.479C86.3959 206.591 84.6951 209.785 83.0513 213.062C69.0918 240.891 64.0554 270.412 70.8623 298.55C76.062 300.746 81.4302 302.594 86.886 304.061C100.493 307.72 114.588 308.998 127.911 307.464C110.894 287.308 97.6167 263.559 92.8837 239.852C90.6012 228.418 88.8681 216.089 88.1549 203.479ZM123.649 159.421C110.68 170.467 99.7754 183.87 90.4748 199.479C91.0169 213.248 92.837 226.807 95.3432 239.361C100.078 263.078 113.597 286.94 130.872 307.073C140.186 305.693 149.07 302.898 157.079 298.531C183.788 283.979 193.581 261.703 206.579 236.945C213.039 224.643 218.19 212.092 224.018 199.666C226.335 194.727 228.753 189.826 231.389 185.005C212.984 179.813 194.786 174.199 177.643 169.76C159.253 164.991 141.383 161.036 123.649 159.421ZM90.5083 159.502C83.9364 160.207 77.3501 161.365 70.73 163.054C46.1734 169.311 25.5434 180.556 15.5484 203.789C7.00903 223.678 13.8915 247.39 26.5126 264.752L27.1593 265.63C37.1548 279.007 51.6425 289.893 67.9937 297.296C61.6807 269.058 66.9341 239.599 80.809 211.938C83.0761 207.418 85.4515 203.05 87.941 198.837C87.4681 185.716 88.1499 172.376 90.5083 159.502ZM403.144 235.354C398.731 239.707 394.025 243.752 389.201 247.496C392.119 253.767 394.318 260.275 395.571 267.013C397.772 261.417 399.599 255.679 400.927 249.896C402.039 245.055 402.8 240.189 403.144 235.354ZM384.896 184.327C374.088 190.645 362.101 194.841 349.567 197.336C352.133 199.769 354.634 202.187 357.051 204.586C369.25 216.699 380.656 230.259 388.084 245.185C393.41 241.026 398.57 236.506 403.326 231.611C403.689 217.378 400.245 203.532 391.225 191.471C389.358 188.976 387.231 186.585 384.896 184.327ZM415.612 150.009C413.163 158.159 408.319 165.728 400.658 172.745C396.429 176.619 391.896 180.019 387.117 182.989C389.361 185.202 391.414 187.537 393.234 189.969L393.855 190.814C402.245 202.424 405.744 215.524 405.856 228.927C410.928 223.381 415.457 217.375 419.116 210.884C430.612 190.493 428.675 168.018 415.612 150.009ZM315.085 169.747C312.218 171.233 309.492 172.973 306.93 174.923C299.221 180.788 294.296 188.017 289.423 195.63C290.876 195.837 292.326 196.031 293.771 196.209C310.52 198.277 327.802 198.419 344.221 195.752C334.961 187.121 324.987 178.358 315.085 169.747ZM277.846 136.699C266.286 144.294 256.277 154.04 247.159 165.487C242.575 171.242 238.654 177.256 235.129 183.448C252.441 188.28 269.839 192.646 286.701 195.229C291.775 187.265 297.021 179.309 305.41 172.927L306.344 172.23C308.477 170.67 310.718 169.247 313.056 167.982C308.188 163.755 303.353 159.567 298.639 155.459L294.888 152.181C289.295 147.285 283.518 142.095 277.846 136.699ZM340.974 164.207C332.567 163.647 324.654 165.316 317.536 168.553C327.674 177.375 337.889 186.371 347.318 195.215C359.998 192.863 372.102 188.778 382.974 182.54C371.537 172.316 355.821 165.192 340.974 164.207ZM120.147 159.133C111.122 158.471 102.126 158.443 93.1074 159.248C90.918 170.871 90.125 182.92 90.3417 194.88C98.8629 181.201 108.69 169.244 120.147 159.133ZM251.033 107.5C241.431 110.89 231.709 113.891 221.946 116.805C202.883 122.494 183.684 127.849 164.776 135.139C150.287 140.725 137.577 148.099 126.367 157.165C143.5 158.93 160.705 162.776 178.273 167.332C195.751 171.858 214.129 177.534 232.641 182.749C236.295 176.278 240.383 169.967 245.197 163.924C254.328 152.461 264.378 142.634 275.987 134.919C266.911 126.172 258.192 116.912 251.033 107.5ZM402.121 136.112C376.832 116.242 343.553 115.24 314.477 121.491C301.519 124.276 290.177 128.979 280.023 135.306C285.511 140.512 291.103 145.534 296.541 150.294L300.283 153.563C305.235 157.88 310.331 162.292 315.465 166.753C323.187 163.046 331.867 161.086 341.141 161.705L342.061 161.773C357.456 163.042 373.57 170.535 385.234 181.202C390.095 178.23 394.692 174.808 398.963 170.896C406.897 163.629 411.593 155.847 413.701 147.506C410.567 143.599 406.888 139.927 402.69 136.564L402.121 136.112ZM231.367 48.7985C186.982 56.5037 147.719 73.5502 117.765 106.781L117.004 107.63C104.68 121.487 97.3852 138.51 93.6145 156.685C103.371 155.862 113.09 155.994 122.824 156.83C134.696 146.869 148.268 138.815 163.873 132.799C182.899 125.464 202.226 120.073 221.229 114.402C230.733 111.566 240.162 108.657 249.456 105.397C238.028 89.9143 229.635 73.3573 230.805 54.112C230.914 52.3064 231.103 50.535 231.367 48.7985ZM317.54 50.4096C316.619 56.291 314.685 62.0292 311.936 67.3021C304.22 82.1033 292.769 89.5398 278.003 96.5273C269.969 100.331 261.789 103.628 253.514 106.615C260.597 115.829 269.192 124.911 278.151 133.519C288.665 126.881 300.447 121.94 313.949 119.038C343.362 112.715 377.539 113.608 403.671 134.14C407.687 137.296 411.26 140.729 414.368 144.38C415.835 135.956 414.844 126.881 411.874 117.077C406.033 97.8057 390.822 84.4887 372.204 73.5816L370.392 72.5331C352.583 62.3547 335.327 54.9719 317.54 50.4096ZM315.097 49.8005C292.35 44.3117 268.659 43.4142 241.776 47.1711C239.16 47.536 236.559 47.9322 233.976 48.3576C233.655 50.2813 233.431 52.251 233.308 54.2647C232.177 72.887 240.395 89.0317 251.928 104.519C260.392 101.484 268.741 98.1366 276.929 94.2605C291.513 87.3595 302.371 80.2231 309.712 66.1426C312.383 61.0184 314.237 55.4662 315.097 49.8005ZM309.419 20.541C298.601 3.28657 278.291 0.710188 261.559 10.3608C247.292 18.5896 237.778 30.6663 234.483 45.7315C236.786 45.3592 239.102 45.0118 241.429 44.6871C268.53 40.8998 292.454 41.7931 315.412 47.2944C316.296 38.359 314.666 29.2571 309.825 21.2024L309.419 20.541Z" fill="white" stroke="white" stroke-width="4"/>
<path d="M151.445 387.132C155.974 387.132 159.646 383.47 159.646 378.952C159.646 374.434 155.974 370.771 151.445 370.771C146.915 370.771 143.243 374.434 143.243 378.952C143.243 383.47 146.915 387.132 151.445 387.132Z" fill="white" stroke="white" stroke-width="2.5"/>
<path d="M280.947 368.812C285.476 368.812 289.148 365.149 289.148 360.631C289.148 356.113 285.476 352.451 280.947 352.451C276.417 352.451 272.746 356.113 272.746 360.631C272.746 365.149 276.417 368.812 280.947 368.812Z" fill="white" stroke="white" stroke-width="2.5"/>
<path d="M160.741 172.715C165.27 172.715 168.942 169.052 168.942 164.534C168.942 160.016 165.27 156.354 160.741 156.354C156.211 156.354 152.539 160.016 152.539 164.534C152.539 169.052 156.211 172.715 160.741 172.715Z" fill="white" stroke="white" stroke-width="2.5"/>
<path d="M367.478 227.099C372.007 227.099 375.679 223.437 375.679 218.919C375.679 214.401 372.007 210.738 367.478 210.738C362.948 210.738 359.276 214.401 359.276 218.919C359.276 223.437 362.948 227.099 367.478 227.099Z" fill="white" stroke="white" stroke-width="2.5"/>
<path d="M280.947 51.1497C285.476 51.1497 289.148 47.4872 289.148 42.9692C289.148 38.4511 285.476 34.7886 280.947 34.7886C276.417 34.7886 272.746 38.4511 272.746 42.9692C272.746 47.4872 276.417 51.1497 280.947 51.1497Z" fill="white" stroke="white" stroke-width="2.5"/>
<path d="M10.4941 242.105C15.0235 242.105 18.6953 238.442 18.6953 233.924C18.6953 229.406 15.0235 225.744 10.4941 225.744C5.96475 225.744 2.29297 229.406 2.29297 233.924C2.29297 238.442 5.96475 242.105 10.4941 242.105Z" fill="white" stroke="white" stroke-width="2.5"/>
<path d="M107.248 337.182C111.778 337.182 115.45 333.519 115.45 329.001C115.45 324.483 111.778 320.821 107.248 320.821C102.719 320.821 99.0472 324.483 99.0472 329.001C99.0472 333.519 102.719 337.182 107.248 337.182Z" fill="white" stroke="white" stroke-width="2.5"/>
<path d="M359.282 73.43C363.812 73.43 367.484 69.7674 367.484 65.2494C367.484 60.7314 363.812 57.0688 359.282 57.0688C354.753 57.0688 351.081 60.7314 351.081 65.2494C351.081 69.7674 354.753 73.43 359.282 73.43Z" fill="white" stroke="white" stroke-width="2.5"/>
<path d="M143.243 89.7916C147.772 89.7916 151.444 86.1291 151.444 81.6111C151.444 77.0931 147.772 73.4305 143.243 73.4305C138.714 73.4305 135.042 77.0931 135.042 81.6111C135.042 86.1291 138.714 89.7916 143.243 89.7916Z" fill="white" stroke="white" stroke-width="2.5"/>
</svg>

