<svg width="79" height="62" viewBox="0 0 79 62" fill="none" xmlns="http://www.w3.org/2000/svg">
<path d="M0 12.1009C1.01019 10.0334 1.91143 9.62257 4.84626 9.96267C4.84626 10.2758 4.84626 10.6025 4.84626 10.9291C4.84626 22.3477 4.84956 33.7663 4.84296 45.1816C4.84296 47.0572 5.24241 48.7846 6.43087 50.2662C7.8174 51.997 9.60999 52.8523 11.7855 53.0207C14.3737 53.2194 16.9817 53.3574 19.5336 53.8019C23.954 54.573 28.0641 56.2129 31.6228 59.0954C32.0586 59.4456 32.468 59.8294 33.016 60.3042C31.3521 60.0113 29.8732 59.7049 28.381 59.4927C23.9705 58.8698 19.5303 58.7115 15.1099 59.2166C11.2936 59.6543 7.50378 60.3278 3.70732 60.9407C1.88172 61.237 0.901246 60.7083 0.00330127 58.7755V12.1009H0Z" fill="white"/>
<path d="M36.9848 57.9911C36.3707 57.4153 35.8689 56.9169 35.3374 56.4489C30.7718 52.4182 25.3973 50.1957 19.4914 49.2866C17.1045 48.9195 14.6814 48.7916 12.2682 48.6299C10.2742 48.4952 9.19141 47.4076 9.19141 45.3468C9.19141 31.3017 9.19141 17.2565 9.19141 3.2114C9.19141 1.06304 10.4162 -0.0582781 12.5257 0.00233385C16.4707 0.12019 20.3431 0.621922 24.09 1.93855C29.1542 3.71987 33.3732 6.66291 36.308 11.3132C36.7009 11.9328 36.9881 12.7544 36.9881 13.4818C37.0277 28.1263 37.0178 42.7674 37.0178 57.4119C37.0178 57.5567 37.0013 57.7015 36.9848 57.9945V57.9911Z" fill="white"/>
<path d="M41.3458 58.0107C41.3458 57.5124 41.3458 57.2026 41.3458 56.8928C41.3458 42.8746 41.3854 28.853 41.3029 14.8348C41.2897 12.737 41.9896 11.1442 43.2143 9.60538C47.0801 4.75642 52.1938 2.08613 58.08 0.907567C60.7177 0.382264 63.4313 0.223999 66.1185 0.0118573C67.9772 -0.132938 69.1722 1.18032 69.1722 3.18051C69.1788 11.0096 69.1722 18.8386 69.1722 26.6676C69.1722 32.8332 69.1722 38.9954 69.1722 45.161C69.1722 47.4979 68.129 48.5788 65.8148 48.6192C60.9124 48.7102 56.1289 49.451 51.5335 51.2693C47.9517 52.687 44.7329 54.6838 41.9797 57.4349C41.8212 57.5932 41.6462 57.7346 41.3458 58.0074V58.0107Z" fill="white"/>
<path d="M45.251 60.2098C46.7332 59.1491 48.0207 58.0918 49.4304 57.25C54.0687 54.482 59.1691 53.3876 64.4776 53.1014C65.6957 53.0341 66.9535 53.0677 68.1222 52.7613C71.5687 51.8589 73.5131 49.0606 73.5164 45.2219C73.523 33.7999 73.5164 22.3813 73.5164 10.9593C73.5164 10.6293 73.5164 10.2959 73.5164 9.93226C74.4243 9.93226 75.243 9.85818 76.0452 9.9491C77.2436 10.0872 78.1943 11.1748 78.3396 12.4308C78.3627 12.6362 78.3627 12.845 78.3627 13.0538C78.3627 27.9879 78.3627 42.9186 78.3627 57.8527C78.3627 59.7182 77.2502 61.0315 75.6193 61.0315C75.0152 61.0315 74.4078 60.8766 73.8135 60.7453C67.0955 59.2771 60.3081 58.6238 53.4513 59.1323C50.7938 59.331 48.1561 59.8226 45.2576 60.2132L45.251 60.2098Z" fill="white"/>
</svg>
