<svg width="45" height="44" viewBox="0 0 45 44" fill="none" xmlns="http://www.w3.org/2000/svg">
<path d="M18.3594 1.50977C19.5392 0.647649 21.1948 0.905604 22.0566 2.08496L22.2051 2.31152C22.8824 3.46853 22.5861 4.97328 21.4805 5.78125C20.3535 6.60483 19.3285 7.36459 18.3965 8.06055C19.5022 7.72279 20.6567 7.3795 21.834 7.05078C25.9923 5.88976 30.665 4.83115 34.6553 4.83105C35.6301 4.83105 36.652 4.90669 37.5098 5.21973C37.9522 5.38122 38.5636 5.68096 39.0605 6.2666V6.26758C39.6239 6.93193 39.8687 7.76323 39.7939 8.58789C39.7281 9.3142 39.4313 9.88484 39.1953 10.249C38.9476 10.6313 38.6507 10.9626 38.3711 11.2383C37.815 11.7865 37.1059 12.3279 36.3525 12.8447C33.3732 14.8886 28.1873 17.5587 23.0605 20.1641C18.8586 22.2995 14.6457 24.4185 11.3623 26.2461C11.3709 26.2437 11.3801 26.2426 11.3887 26.2402C14.0367 25.506 16.9846 24.3204 20.0381 22.9365C23.0909 21.5529 26.143 20.0207 29.0508 18.5967C31.9114 17.1957 34.6726 15.8791 36.9883 15.0273C37.6686 14.7771 38.3726 14.5803 39.0596 14.5176C39.7114 14.4581 40.6674 14.4902 41.5576 15.0566L41.7402 15.1816C42.6215 15.8257 42.9995 16.7569 43.0918 17.5615C43.1801 18.3326 43.0262 19.0527 42.8613 19.5918C42.5262 20.6878 41.872 21.8954 41.1279 23.0654C40.3591 24.2742 39.3915 25.601 38.3105 26.9629C34.0634 32.3136 27.5016 38.897 22.9951 41.6465C21.748 42.4074 20.1194 42.013 19.3584 40.7656C18.5977 39.5185 18.9917 37.8909 20.2383 37.1299H20.2393C23.9631 34.8579 30.0674 28.8376 34.167 23.6729C34.8836 22.77 35.5184 21.9134 36.0576 21.1318C34.6421 21.7639 33.0727 22.5186 31.3779 23.3486C28.5345 24.7411 25.3692 26.3294 22.2217 27.7559C19.0749 29.182 15.8385 30.4959 12.8018 31.3379C9.81641 32.1656 6.73364 32.6225 4.0127 32.0498C3.41545 31.9241 1.70401 31.483 1.14551 29.7217C0.867556 28.8447 1.03533 28.0549 1.24805 27.5244C1.45461 27.0095 1.75642 26.5952 2.0127 26.2939C2.9456 25.1975 4.63417 24.0631 6.37402 23.0137C10.0337 20.8063 15.5277 18.0566 20.6641 15.4463C24.0832 13.7087 27.317 12.044 29.8828 10.5977C27.771 10.9649 25.5142 11.5162 23.2568 12.1465C21.2386 12.71 19.2738 13.3208 17.4688 13.8887C15.6866 14.4493 14.0162 14.9823 12.6689 15.3613C11.9931 15.5515 11.3501 15.7172 10.7812 15.8311C10.2644 15.9345 9.60126 16.0405 8.96973 15.998C8.66062 15.9773 8.11047 15.9072 7.54688 15.5928H7.5459C6.87217 15.2166 6.25397 14.5176 6.09277 13.5322V13.5312C5.95928 12.7131 6.20479 12.0501 6.35938 11.7129C6.53015 11.3405 6.74988 11.0229 6.94043 10.7783C7.64832 9.86975 8.95215 8.71225 10.7031 7.30273C12.5237 5.83717 15.0397 3.93569 18.3594 1.50977Z" fill="white" stroke="#7156B0" stroke-width="2" stroke-linecap="round"/>
</svg>
