<svg width="150" height="173" viewBox="0 0 150 173" fill="none" xmlns="http://www.w3.org/2000/svg">
<path d="M145.518 169.149C143.051 171.212 140.18 172.465 136.905 172.465C123.115 172.465 109.367 172.465 95.6183 172.506C94.0413 172.506 93.1517 172.303 92.6664 170.484C91.3724 165.227 88.2992 160.941 84.3768 157.261C83.285 156.21 82.1932 155.158 80.8184 153.864C89.5528 150.023 98.1658 147.596 107.224 146.505C115.594 145.494 123.884 145.939 132.133 146.788C138.279 147.435 143.738 149.861 147.499 155.239C149.966 158.676 150.33 165.227 145.518 169.149Z" fill="white"/>
<path d="M86.8049 172.262C85.7131 172.343 84.7426 172.464 83.7721 172.464C60.3187 172.505 36.8247 172.464 13.3712 172.464C8.47835 172.464 4.51552 170.685 1.7658 166.601C-0.539109 163.164 -0.539108 159.565 1.48274 155.966C3.62591 152.205 6.98218 149.698 10.9854 148.323C13.6947 147.434 16.6062 146.908 19.4772 146.706C25.5024 146.261 31.5275 145.816 37.5526 146.018C50.6138 146.423 62.9066 149.82 74.0268 156.775C79.5667 160.252 84.1361 164.66 86.4814 170.968C86.6027 171.292 86.6432 171.656 86.8049 172.262Z" fill="white"/>
<path d="M140.626 137.689C139.575 139.104 137.998 139.832 136.218 139.913C126.554 140.439 117.375 138.942 109.166 133.403C106.578 131.664 104.961 129.521 104.839 126.326C104.799 124.83 104.556 123.334 104.516 121.838V99.1928C104.516 98.1819 104.475 97.1709 104.435 96.16C104.394 94.6638 103.464 93.8551 102.13 93.572C100.755 93.289 99.5824 93.8955 98.9759 95.1086C98.5715 95.9578 98.4097 97.0092 98.4097 97.9797C98.3693 107.038 98.2884 116.136 98.4097 125.194C98.4906 130.491 100.553 134.939 105.082 138.012C105.891 138.578 106.578 139.225 107.751 140.115C104.88 140.6 102.534 141.005 100.229 141.369C92.2229 142.663 84.6207 145.251 77.3824 148.809C75.8054 149.577 74.5114 149.82 72.8131 148.971C64.2 144.644 55.223 141.53 45.5585 140.56C44.952 140.56 44.3454 140.317 43.7388 140.156C43.2536 140.034 42.8088 139.872 42 139.589C49.3191 135.505 51.3814 129.197 51.1388 121.595C50.8962 114.033 51.0984 106.471 51.058 98.9502C51.0175 97.6966 50.9771 96.3217 50.4109 95.3108C49.9661 94.4616 48.7126 93.5316 47.823 93.5316C46.9334 93.5316 45.6798 94.4616 45.235 95.3108C44.6689 96.3622 44.6284 97.737 44.6284 98.9502C44.588 107.401 44.6284 115.812 44.588 124.264C44.588 125.639 44.6284 127.054 44.3049 128.388C43.8197 130.41 42.4448 131.906 40.7465 133.119C34.8022 137.284 28.0897 139.225 21.0132 139.872C18.7487 140.115 16.4438 140.034 14.1794 139.953C12.1575 139.872 9.5291 139.792 9.08429 137.648C8.67992 135.707 10.6613 134.009 12.5214 133.119C16.0395 131.502 19.6383 130.006 23.3181 128.712C25.5422 127.903 27.928 127.58 30.2733 127.013C32.7804 126.447 33.8318 125.436 33.7105 123.738C33.6296 122.242 32.6995 121.514 30.3137 120.948C30.0711 120.867 29.8689 120.746 29.8285 120.746C31.1225 112.294 32.4569 103.883 33.6296 95.4726C34.2766 90.9032 34.4383 86.2125 35.2471 81.6835C37.188 70.442 43.9815 63.3251 54.7377 59.888C56.7596 59.241 58.9432 59.0388 61.0863 58.9984C70.306 58.9175 79.5256 58.9579 88.7453 58.9984C101.119 59.0792 112.401 69.2694 114.221 81.2387C114.908 85.9699 115.191 90.7414 115.798 95.4726C116.809 103.398 117.456 111.405 119.437 119.209C119.518 119.573 119.437 119.977 119.437 120.544C118.83 120.746 118.103 120.907 117.496 121.231C116.283 121.878 115.555 122.889 115.757 124.304C115.959 125.719 116.889 126.569 118.183 126.892C120.488 127.499 122.874 127.822 125.139 128.55C128.818 129.763 132.498 131.138 136.057 132.634C138.24 133.524 139.817 135.141 140.626 137.689Z" fill="white"/>
<path d="M101.162 26.325C101.202 43.066 86.4829 53.5796 74.6348 52.3665C62.5442 53.4583 48.1082 42.6212 48.2699 26.1633C48.4721 9.90759 61.978 0.0813861 74.6348 0.000512025C86.8064 -0.0803621 101.081 9.42235 101.162 26.325Z" fill="white"/>
</svg>

