<svg width="41" height="54" viewBox="0 0 41 54" fill="none" xmlns="http://www.w3.org/2000/svg">
<path opacity="0.62" d="M5.07603 53.2983C3.68012 53.2983 2.48514 52.8012 1.49108 51.8072C0.497027 50.8131 0 49.6181 0 48.2222V22.8421C0 21.4462 0.497027 20.2512 1.49108 19.2572C2.48514 18.2631 3.68012 17.7661 5.07603 17.7661H7.61404V12.6901C7.61404 9.17914 8.85132 6.18641 11.3259 3.71184C13.8004 1.23728 16.7932 0 20.3041 0C23.815 0 26.8078 1.23728 29.2823 3.71184C31.7569 6.18641 32.9942 9.17914 32.9942 12.6901V17.7661H35.5322C36.9281 17.7661 38.1231 18.2631 39.1171 19.2572C40.1112 20.2512 40.6082 21.4462 40.6082 22.8421V48.2222C40.6082 49.6181 40.1112 50.8131 39.1171 51.8072C38.1231 52.8012 36.9281 53.2983 35.5322 53.2983H5.07603ZM5.07603 48.2222H35.5322V22.8421H5.07603V48.2222ZM20.3041 40.6082C21.7 40.6082 22.895 40.1112 23.889 39.1171C24.8831 38.1231 25.3801 36.9281 25.3801 35.5322C25.3801 34.1363 24.8831 32.9413 23.889 31.9472C22.895 30.9532 21.7 30.4562 20.3041 30.4562C18.9082 30.4562 17.7132 30.9532 16.7192 31.9472C15.7251 32.9413 15.2281 34.1363 15.2281 35.5322C15.2281 36.9281 15.7251 38.1231 16.7192 39.1171C17.7132 40.1112 18.9082 40.6082 20.3041 40.6082ZM12.6901 17.7661H27.9181V12.6901C27.9181 10.5751 27.1779 8.77729 25.6974 7.29679C24.2169 5.81628 22.4191 5.07603 20.3041 5.07603C18.1891 5.07603 16.3913 5.81628 14.9108 7.29679C13.4303 8.77729 12.6901 10.5751 12.6901 12.6901V17.7661Z" fill="#E3E3E3"/>
</svg>

