<svg width="59" height="67" viewBox="0 0 59 67" fill="none" xmlns="http://www.w3.org/2000/svg">
<path d="M12.6169 66.5799C11.3613 66.2884 10.1791 65.8536 9.23621 64.9189C8.0849 63.7774 7.57031 62.3671 7.44166 60.7859C6.90753 54.2021 6.37828 47.6183 5.83601 41.0345C5.29537 34.4506 4.74169 27.8684 4.19616 21.2863C4.14894 20.7261 4.10986 20.1643 4.05937 19.5129C3.41614 19.5129 2.79895 19.5178 2.18177 19.5129C0.787821 19.4999 0.0159373 18.7296 0.00616658 17.334C-0.000347215 16.186 -0.00360411 15.0379 0.00616658 13.8882C0.0371071 10.3463 2.53352 7.83365 6.07376 7.81574C9.64821 7.79782 13.2243 7.81248 16.7987 7.81085C17.0316 7.81085 17.2628 7.81085 17.5576 7.81085C17.5576 7.19041 17.5527 6.63348 17.5576 6.07493C17.5934 2.53468 20.0931 0.0284978 23.6366 0.0122134C27.3853 -0.00407112 31.134 -0.00407112 34.8826 0.0122134C38.4261 0.0284978 40.9258 2.53631 40.9616 6.07493C40.9665 6.63186 40.9616 7.19041 40.9616 7.80922C41.2564 7.80922 41.4876 7.80922 41.7205 7.80922C45.2949 7.80922 48.871 7.79131 52.4454 7.81574C54.906 7.83202 56.8146 8.88074 57.8812 11.1345C58.2574 11.9292 58.4137 12.8688 58.4886 13.7579C58.5896 14.963 58.5228 16.1827 58.5114 17.3959C58.5 18.7084 57.7135 19.4917 56.4026 19.5096C55.7773 19.5178 55.1503 19.5096 54.468 19.5096C54.3442 20.9492 54.2205 22.3464 54.1048 23.742C53.6782 28.9009 53.2532 34.0598 52.8314 39.2187C52.4226 44.2262 52.0237 49.2353 51.6101 54.2428C51.4081 56.6822 51.2551 59.1265 50.9522 61.5529C50.6281 64.147 48.7668 65.9872 46.202 66.4724C46.0994 66.492 46.0017 66.5408 45.9023 66.5767H12.6169V66.5799ZM7.99045 19.5422C8.00185 19.7213 8.00673 19.8483 8.0165 19.977C8.33405 23.8397 8.65323 27.7023 8.96752 31.5667C9.33229 36.0335 9.69217 40.5019 10.0569 44.9688C10.4755 50.0837 10.9103 55.1971 11.3157 60.312C11.4525 62.0382 12.0893 62.6798 13.8073 62.6798C24.0763 62.6798 34.3436 62.6798 44.6126 62.6798C46.4642 62.6798 47.0683 62.0707 47.2051 60.2143C47.4591 56.8027 47.7539 53.3944 48.034 49.9844C48.4053 45.4736 48.7782 40.9644 49.1511 36.4536C49.4784 32.4835 49.8074 28.5117 50.1331 24.5415C50.2682 22.887 50.3985 21.2325 50.5353 19.5438H7.99045V19.5422ZM3.91119 15.5704H54.6048C54.6048 14.862 54.6406 14.1927 54.5966 13.5283C54.5185 12.3673 53.657 11.711 52.2696 11.711C36.9345 11.711 21.5994 11.711 6.26429 11.711C6.09168 11.711 5.91743 11.7061 5.74482 11.7191C4.73192 11.8006 3.96981 12.5578 3.9177 13.5772C3.88513 14.2237 3.91119 14.8718 3.91119 15.5704ZM21.4756 7.75711H37.0566C37.0566 7.07642 37.0778 6.44947 37.0517 5.82252C37.0061 4.74123 36.2229 3.96934 35.1399 3.9156C34.7947 3.89932 34.4478 3.90909 34.101 3.90909C30.5949 3.90909 27.0889 3.9042 23.5828 3.91235C22.4315 3.91398 21.5847 4.58164 21.487 5.61733C21.4203 6.31919 21.474 7.03245 21.474 7.75711H21.4756Z" fill="#580000"/>
<path d="M19.5065 39.211C19.5065 43.7185 19.5114 48.2244 19.5032 52.732C19.5 54.2578 18.2493 55.23 16.9222 54.7545C16.1307 54.4712 15.709 53.8817 15.6178 53.0544C15.595 52.8395 15.6064 52.6213 15.6064 52.4047C15.6064 43.5638 15.6064 34.723 15.6064 25.8821C15.6064 24.3237 16.3245 23.415 17.5572 23.415C18.79 23.415 19.5065 24.3221 19.5065 25.8821C19.5065 30.3245 19.5065 34.7653 19.5065 39.2077V39.211Z" fill="#580000"/>
<path d="M27.3091 39.1292C27.3091 34.6005 27.3042 30.0718 27.3123 25.5431C27.3156 24.0237 28.5825 23.0548 29.9097 23.5401C30.6718 23.8185 31.0903 24.3885 31.1945 25.1864C31.2255 25.4209 31.2108 25.6619 31.2108 25.9013C31.2108 34.721 31.2108 43.5391 31.2108 52.3587C31.2108 52.489 31.2108 52.6193 31.2108 52.7496C31.1913 54.01 30.382 54.8845 29.2453 54.8747C28.1103 54.8649 27.3156 53.9904 27.314 52.717C27.3091 48.1883 27.3123 43.6596 27.3123 39.1308L27.3091 39.1292Z" fill="#580000"/>
<path d="M42.9105 39.1524C42.9105 43.6811 42.9154 48.2098 42.9072 52.7385C42.904 54.2611 41.6452 55.2333 40.318 54.7513C39.5282 54.4647 39.108 53.8736 39.0201 53.0463C38.9973 52.8313 39.0087 52.6131 39.0087 52.3966C39.0087 43.5557 39.0087 34.7149 39.0087 25.874C39.0087 24.3221 39.7366 23.4102 40.9661 23.4151C42.1956 23.4199 42.9088 24.327 42.9088 25.8903C42.9088 30.3099 42.9088 34.7311 42.9088 39.1508L42.9105 39.1524Z" fill="#580000"/>
</svg>
