<svg width="141" height="140" viewBox="0 0 141 140" fill="none" xmlns="http://www.w3.org/2000/svg">
<rect width="140.886" height="139.65" fill="white"/>
<path d="M76.9824 29.1456C80.8328 26.9248 85.6109 27.4872 88.1574 31.5491L88.2518 31.7028C89.3907 33.5978 89.7582 35.7304 89.5369 37.8076C93.4873 38.8138 97.3165 40.4483 101.263 42.7039C105.541 45.1474 109.186 48.1933 110.563 52.7353C111.272 55.0766 111.49 57.2763 111.046 59.3346C111.041 59.3565 111.036 59.3783 111.031 59.4002C114.23 63.5414 114.796 68.8313 112.095 73.6217C111.176 75.2518 110.014 76.7422 108.715 78.101C108.666 79.3945 108.481 80.6961 108.185 81.9838C107.821 83.5691 107.289 85.1365 106.642 86.6468C106.79 87.9292 106.777 89.2485 106.571 90.604C105.628 96.8113 101.204 101.155 96.4528 104.035C90.2789 107.776 84.1844 109.809 77.0004 109.711C72.2456 109.645 68.5235 108.55 64.6363 106.686C63.1645 108.122 61.3892 109.246 58.8649 109.849C50.3105 111.889 41.832 106.532 37.4688 98.5914C36.4435 96.7267 35.694 94.8119 35.1998 92.868C31.4037 91.2195 28.0171 88.7266 25.6957 85.6199L25.5506 85.4229C22.736 81.551 21.1314 76.1724 23.0991 71.5895C25.3765 66.2959 30.0736 63.7742 35.5014 62.391C37.0279 62.0016 38.5454 61.7399 40.0581 61.5855C40.8863 57.4813 42.5202 53.6181 45.3202 50.4699C52.0235 42.9321 60.8483 39.1228 70.7714 37.4303C71.4809 33.8832 73.6824 31.049 76.9824 29.1456ZM35.8363 93.1352C36.3184 94.8985 37.0173 96.6347 37.9482 98.3278C42.2349 106.129 50.4986 111.282 58.7378 109.317L58.9447 109.266C61.1632 108.701 62.7639 107.71 64.1126 106.431C62.2807 105.525 60.4005 104.452 58.3486 103.239C56.2765 102.014 54.1938 100.461 52.2137 98.6687C49.098 98.9314 46.0638 99.0715 43.1651 99.0861L43.1622 98.539C45.8918 98.5252 48.7418 98.3996 51.6668 98.1647C50.5817 97.1478 49.5315 96.0597 48.5353 94.9147C45.4419 95.3264 42.1627 95.0483 39.0182 94.2028C37.9389 93.9127 36.874 93.5552 35.8363 93.1352ZM104.648 81.6787C102.22 83.5095 99.6858 85.0009 97.5055 86.1852C89.8915 90.3192 80.7214 93.494 71.3303 95.6598C70.4809 98.0283 69.5032 100.353 68.0083 102.475C67.0415 103.848 66.1174 105.144 65.0433 106.274C68.8205 108.065 72.423 109.101 77.0078 109.164C84.0695 109.26 90.0643 107.266 96.1693 103.567C100.856 100.727 105.122 96.4995 106.031 90.5219C106.177 89.5566 106.222 88.6091 106.177 87.6795C105.034 90.1069 103.609 92.3563 102.125 94.2538C96.9084 100.925 88.8849 104.146 80.9316 105.926L80.8121 105.393C88.7206 103.622 96.5936 100.44 101.694 93.9168C103.336 91.8181 104.9 89.2864 106.081 86.5672C105.868 84.8756 105.366 83.2459 104.648 81.6787ZM70.6957 95.8044C64.7479 97.146 58.7237 98.0833 52.9612 98.6035C54.7972 100.226 56.7159 101.638 58.627 102.768C60.7392 104.016 62.6595 105.11 64.5247 106.024C65.6158 104.902 66.5561 103.587 67.5611 102.16C68.9533 100.184 69.884 98.0322 70.6957 95.8044ZM71.2167 67.8601C70.6257 68.9331 70.0842 70.0289 69.5636 71.1387C68.3086 73.8143 67.1645 76.5959 65.7494 79.291C62.9807 84.5644 60.7993 89.5227 55.0094 92.7941L54.7309 92.9487C53.0218 93.8806 51.1429 94.4933 49.1785 94.819C50.205 95.9801 51.2876 97.0801 52.405 98.1032C58.4079 97.5856 64.7076 96.6107 70.9146 95.1937C71.3798 93.8792 71.8151 92.5415 72.2889 91.2004L72.5249 90.5393C74.9879 83.7132 78.186 77.0019 82.1488 70.8634C82.2392 70.7233 82.3289 70.5827 82.4186 70.442C78.7531 69.8644 74.9689 68.9092 71.2167 67.8601ZM95.7858 70.5225C92.0129 71.187 88.0371 71.1673 84.2141 70.6953C83.8143 70.646 83.4128 70.5915 83.0097 70.5323L82.6085 71.1601C78.5439 77.4561 75.286 84.3638 72.8047 91.3828C72.3753 92.5982 71.9733 93.827 71.5465 95.0479C80.7754 92.8942 89.7696 89.7628 97.2444 85.7043C99.4498 84.5064 101.992 83.0066 104.408 81.1738C102.833 77.9673 100.376 75.0283 97.6971 72.3677L97.3267 72.0023C96.827 71.5122 96.3123 71.0186 95.7858 70.5225ZM39.4371 71.7378C39.0535 72.4165 38.6825 73.1132 38.324 73.8279C35.2795 79.8974 34.1811 86.3357 35.6656 92.4725C36.7997 92.9515 37.9705 93.3545 39.1603 93.6744C42.1281 94.4723 45.2021 94.7512 48.1077 94.4165C44.3965 90.0207 41.5007 84.8411 40.4684 79.6706C39.9706 77.177 39.5926 74.4879 39.4371 71.7378ZM47.1782 62.1289C44.3498 64.5381 41.9715 67.4612 39.9431 70.8655C40.0613 73.8683 40.4582 76.8256 41.0048 79.5635C42.0375 84.7361 44.9859 89.9405 48.7536 94.3312C50.785 94.0302 52.7224 93.4208 54.4691 92.4684C60.2944 89.2946 62.43 84.4362 65.265 79.0367C66.6738 76.3536 67.7972 73.6162 69.0683 70.9063C69.5737 69.8291 70.1009 68.7601 70.6758 67.7087C66.6618 66.5764 62.6929 65.352 58.9542 64.3839C54.9434 63.3438 51.0459 62.4812 47.1782 62.1289ZM39.9504 62.1467C38.517 62.3004 37.0806 62.5528 35.6368 62.9212C30.2811 64.286 25.7818 66.7384 23.6019 71.8055C21.7395 76.1432 23.2405 81.3146 25.9931 85.1013L26.1342 85.2927C28.3142 88.2101 31.4739 90.5844 35.04 92.1989C33.6632 86.0404 34.8089 79.6154 37.835 73.5827C38.3294 72.597 38.8475 71.6443 39.3904 70.7254C39.2873 67.8638 39.436 64.9544 39.9504 62.1467ZM108.135 78.6896C107.172 79.6391 106.146 80.5211 105.094 81.3379C105.73 82.7055 106.21 84.1248 106.483 85.5944C106.963 84.374 107.362 83.1225 107.652 81.8613C107.894 80.8054 108.06 79.7442 108.135 78.6896ZM104.155 67.5609C101.798 68.9387 99.1836 69.854 96.4501 70.398C97.0096 70.9286 97.5551 71.4561 98.0823 71.9793C100.743 74.6211 103.23 77.5784 104.851 80.8337C106.012 79.9266 107.137 78.9409 108.175 77.8733C108.254 74.7692 107.503 71.7493 105.535 69.119C105.128 68.5747 104.664 68.0533 104.155 67.5609ZM110.854 60.0762C110.32 61.8536 109.264 63.5046 107.593 65.035C106.671 65.8797 105.682 66.6214 104.639 67.269C105.129 67.7517 105.577 68.2609 105.974 68.7913L106.109 68.9756C107.939 71.5077 108.702 74.3648 108.726 77.288C109.833 76.0784 110.82 74.7685 111.618 73.3529C114.126 68.9057 113.703 64.004 110.854 60.0762ZM88.9296 64.381C88.3044 64.7052 87.7098 65.0847 87.1511 65.51C85.4698 66.7889 84.3956 68.3656 83.3328 70.026C83.6499 70.071 83.966 70.1135 84.2811 70.1523C87.934 70.6033 91.7033 70.6342 95.2841 70.0527C93.2646 68.1702 91.0891 66.259 88.9296 64.381ZM80.808 57.1733C78.2867 58.8298 76.1039 60.9553 74.1153 63.4519C73.1155 64.7071 72.2603 66.0187 71.4916 67.3691C75.2672 68.423 79.0618 69.3753 82.7392 69.9386C83.8458 68.2016 84.99 66.4664 86.8196 65.0745L87.0232 64.9226C87.4885 64.5824 87.9773 64.2719 88.4871 63.9962C87.4255 63.0741 86.3709 62.1609 85.3429 61.2648L84.5247 60.5499C83.3049 59.4821 82.0449 58.3502 80.808 57.1733ZM94.576 63.1729C92.7424 63.0506 91.0167 63.4147 89.4641 64.1207C91.6752 66.0447 93.9031 68.0066 95.9596 69.9355C98.7251 69.4225 101.365 68.5316 103.736 67.1712C101.242 64.9413 97.8141 63.3876 94.576 63.1729ZM46.4145 62.0662C44.4462 61.9217 42.4841 61.9156 40.5172 62.0913C40.0397 64.6261 39.8668 67.254 39.914 69.8623C41.7725 66.8791 43.9158 64.2712 46.4145 62.0662ZM74.9601 50.8053C72.8661 51.5445 70.7458 52.1991 68.6163 52.8346C64.4588 54.0754 60.2716 55.2433 56.1478 56.8332C52.9878 58.0515 50.2159 59.6597 47.7709 61.637C51.5077 62.0218 55.2599 62.8607 59.0915 63.8542C62.9034 64.8413 66.9115 66.0793 70.949 67.2168C71.746 65.8054 72.6375 64.4291 73.6873 63.1111C75.6788 60.6109 77.8706 58.4677 80.4024 56.7852C78.423 54.8775 76.5215 52.858 74.9601 50.8053ZM107.912 57.0454C102.396 52.7118 95.1385 52.4933 88.797 53.8565C85.9709 54.4641 83.4972 55.4896 81.2828 56.8695C82.4797 58.0049 83.6993 59.1003 84.8852 60.1384L85.7014 60.8514C86.7814 61.7929 87.8929 62.7552 89.0125 63.728C90.6966 62.9196 92.5898 62.4921 94.6124 62.627L94.8129 62.642C98.1706 62.9186 101.685 64.553 104.229 66.8793C105.289 66.2311 106.292 65.4848 107.223 64.6316C108.954 63.0467 109.978 61.3494 110.437 59.5304C109.754 58.6783 108.952 57.8775 108.036 57.1439L107.912 57.0454ZM70.671 38.0026C60.9908 39.6831 52.4279 43.4009 45.8949 50.6484L45.7289 50.8336C43.0411 53.8556 41.4502 57.5683 40.6278 61.5323C42.7557 61.3527 44.8753 61.3817 46.9983 61.564C49.5876 59.3914 52.5475 57.6349 55.951 56.3227C60.1003 54.723 64.3157 53.5473 68.46 52.3105C70.5329 51.6919 72.5891 51.0574 74.6162 50.3465C72.1238 46.9698 70.2934 43.3588 70.5485 39.1615C70.5724 38.7677 70.6135 38.3813 70.671 38.0026ZM89.4652 38.354C89.2643 39.6367 88.8425 40.8882 88.2429 42.0382C86.56 45.2663 84.0626 46.8882 80.8422 48.4121C79.0901 49.2416 77.306 49.9606 75.5014 50.6122C77.0461 52.6218 78.9206 54.6025 80.8744 56.4798C83.1675 55.032 85.7371 53.9546 88.6819 53.3215C95.0967 51.9426 102.551 52.1373 108.25 56.6153C109.126 57.3037 109.905 58.0524 110.583 58.8486C110.903 57.0113 110.687 55.0321 110.039 52.8939C108.765 48.6909 105.448 45.7865 101.387 43.4077L100.992 43.179C97.1079 40.9592 93.3443 39.349 89.4652 38.354ZM88.9323 38.2212C83.9712 37.0241 78.8044 36.8283 72.9413 37.6477C72.3707 37.7273 71.8035 37.8137 71.2402 37.9065C71.17 38.326 71.1212 38.7556 71.0945 39.1948C70.8477 43.2562 72.6401 46.7773 75.1553 50.1551C77.0014 49.4931 78.8223 48.7631 80.608 47.9177C83.7886 46.4126 86.1568 44.8562 87.7578 41.7853C88.3404 40.6677 88.7447 39.4568 88.9323 38.2212ZM87.6939 31.8398C85.3346 28.0767 80.905 27.5148 77.2557 29.6195C74.1442 31.4142 72.0694 34.0481 71.3506 37.3337C71.8529 37.2525 72.358 37.1768 72.8656 37.1059C78.7761 36.28 83.9939 36.4748 89.0009 37.6746C89.1938 35.7258 88.8383 33.7407 87.7826 31.984L87.6939 31.8398Z" fill="#2C114F"/>
<path d="M53.2403 111.792C54.2282 111.792 55.029 110.993 55.029 110.008C55.029 109.022 54.2282 108.224 53.2403 108.224C52.2525 108.224 51.4517 109.022 51.4517 110.008C51.4517 110.993 52.2525 111.792 53.2403 111.792Z" fill="#2C114F"/>
<path d="M81.4842 107.796C82.4721 107.796 83.2729 106.997 83.2729 106.012C83.2729 105.027 82.4721 104.228 81.4842 104.228C80.4964 104.228 79.6956 105.027 79.6956 106.012C79.6956 106.997 80.4964 107.796 81.4842 107.796Z" fill="#2C114F"/>
<path d="M55.2677 65.0283C56.2556 65.0283 57.0564 64.2295 57.0564 63.2441C57.0564 62.2588 56.2556 61.46 55.2677 61.46C54.2799 61.46 53.4791 62.2588 53.4791 63.2441C53.4791 64.2295 54.2799 65.0283 55.2677 65.0283Z" fill="#2C114F"/>
<path d="M100.356 76.8894C101.344 76.8894 102.145 76.0906 102.145 75.1052C102.145 74.1199 101.344 73.3211 100.356 73.3211C99.3684 73.3211 98.5676 74.1199 98.5676 75.1052C98.5676 76.0906 99.3684 76.8894 100.356 76.8894Z" fill="#2C114F"/>
<path d="M81.4842 38.5154C82.4721 38.5154 83.2729 37.7166 83.2729 36.7313C83.2729 35.7459 82.4721 34.9471 81.4842 34.9471C80.4964 34.9471 79.6956 35.7459 79.6956 36.7313C79.6956 37.7166 80.4964 38.5154 81.4842 38.5154Z" fill="#2C114F"/>
<path d="M22.4996 80.162C23.4874 80.162 24.2882 79.3632 24.2882 78.3778C24.2882 77.3925 23.4874 76.5937 22.4996 76.5937C21.5117 76.5937 20.7109 77.3925 20.7109 78.3778C20.7109 79.3632 21.5117 80.162 22.4996 80.162Z" fill="#2C114F"/>
<path d="M43.6013 100.898C44.5891 100.898 45.3899 100.099 45.3899 99.1137C45.3899 98.1284 44.5891 97.3296 43.6013 97.3296C42.6135 97.3296 41.8127 98.1284 41.8127 99.1137C41.8127 100.099 42.6135 100.898 43.6013 100.898Z" fill="#2C114F"/>
<path d="M98.5689 43.3747C99.5568 43.3747 100.358 42.5759 100.358 41.5905C100.358 40.6051 99.5568 39.8063 98.5689 39.8063C97.5811 39.8063 96.7803 40.6051 96.7803 41.5905C96.7803 42.5759 97.5811 43.3747 98.5689 43.3747Z" fill="#2C114F"/>
<path d="M51.4516 46.9431C52.4394 46.9431 53.2402 46.1443 53.2402 45.1589C53.2402 44.1736 52.4394 43.3748 51.4516 43.3748C50.4637 43.3748 49.6629 44.1736 49.6629 45.1589C49.6629 46.1443 50.4637 46.9431 51.4516 46.9431Z" fill="#2C114F"/>
<path d="M76.9824 29.1456C80.8328 26.9248 85.6109 27.4872 88.1574 31.5491L88.2518 31.7028C89.3907 33.5978 89.7582 35.7304 89.5369 37.8076C93.4873 38.8138 97.3165 40.4483 101.263 42.7039C105.541 45.1474 109.186 48.1933 110.563 52.7353C111.272 55.0766 111.49 57.2763 111.046 59.3346C111.041 59.3565 111.036 59.3783 111.031 59.4002C114.23 63.5414 114.796 68.8313 112.095 73.6217C111.176 75.2518 110.014 76.7422 108.715 78.101C108.666 79.3945 108.481 80.6961 108.185 81.9838C107.821 83.5691 107.289 85.1365 106.642 86.6468C106.79 87.9292 106.777 89.2485 106.571 90.604C105.628 96.8113 101.204 101.155 96.4528 104.035C90.2789 107.776 84.1844 109.809 77.0004 109.711C72.2456 109.645 68.5235 108.55 64.6363 106.686C63.1645 108.122 61.3892 109.246 58.8649 109.849C50.3105 111.889 41.832 106.532 37.4688 98.5914C36.4435 96.7267 35.694 94.8119 35.1998 92.868C31.4037 91.2195 28.0171 88.7266 25.6957 85.6199L25.5506 85.4229C22.736 81.551 21.1314 76.1724 23.0991 71.5895C25.3765 66.2959 30.0736 63.7742 35.5014 62.391C37.0279 62.0016 38.5454 61.7399 40.0581 61.5855C40.8863 57.4813 42.5202 53.6181 45.3202 50.4699C52.0235 42.9321 60.8483 39.1228 70.7714 37.4303C71.4809 33.8832 73.6824 31.049 76.9824 29.1456ZM35.8363 93.1352C36.3184 94.8985 37.0173 96.6347 37.9482 98.3278C42.2349 106.129 50.4986 111.282 58.7378 109.317L58.9447 109.266C61.1632 108.701 62.7639 107.71 64.1126 106.431C62.2807 105.525 60.4005 104.452 58.3486 103.239C56.2765 102.014 54.1938 100.461 52.2137 98.6687C49.098 98.9314 46.0638 99.0715 43.1651 99.0861L43.1622 98.539C45.8918 98.5252 48.7418 98.3996 51.6668 98.1647C50.5817 97.1478 49.5315 96.0597 48.5353 94.9147C45.4419 95.3264 42.1627 95.0483 39.0182 94.2028C37.9389 93.9127 36.874 93.5552 35.8363 93.1352ZM104.648 81.6787C102.22 83.5095 99.6858 85.0009 97.5055 86.1852C89.8915 90.3192 80.7214 93.494 71.3303 95.6598C70.4809 98.0283 69.5032 100.353 68.0083 102.475C67.0415 103.848 66.1174 105.144 65.0433 106.274C68.8205 108.065 72.423 109.101 77.0078 109.164C84.0695 109.26 90.0643 107.266 96.1693 103.567C100.856 100.727 105.122 96.4995 106.031 90.5219C106.177 89.5566 106.222 88.6091 106.177 87.6795C105.034 90.1069 103.609 92.3563 102.125 94.2538C96.9084 100.925 88.8849 104.146 80.9316 105.926L80.8121 105.393C88.7206 103.622 96.5936 100.44 101.694 93.9168C103.336 91.8181 104.9 89.2864 106.081 86.5672C105.868 84.8756 105.366 83.2459 104.648 81.6787ZM70.6957 95.8044C64.7479 97.146 58.7237 98.0833 52.9612 98.6035C54.7972 100.226 56.7159 101.638 58.627 102.768C60.7392 104.016 62.6595 105.11 64.5247 106.024C65.6158 104.902 66.5561 103.587 67.5611 102.16C68.9533 100.184 69.884 98.0322 70.6957 95.8044ZM71.2167 67.8601C70.6257 68.9331 70.0842 70.0289 69.5636 71.1387C68.3086 73.8143 67.1645 76.5959 65.7494 79.291C62.9807 84.5644 60.7993 89.5227 55.0094 92.7941L54.7309 92.9487C53.0218 93.8806 51.1429 94.4933 49.1785 94.819C50.205 95.9801 51.2876 97.0801 52.405 98.1032C58.4079 97.5856 64.7076 96.6107 70.9146 95.1937C71.3798 93.8792 71.8151 92.5415 72.2889 91.2004L72.5249 90.5393C74.9879 83.7132 78.186 77.0019 82.1488 70.8634C82.2392 70.7233 82.3289 70.5827 82.4186 70.442C78.7531 69.8644 74.9689 68.9092 71.2167 67.8601ZM95.7858 70.5225C92.0129 71.187 88.0371 71.1673 84.2141 70.6953C83.8143 70.646 83.4128 70.5915 83.0097 70.5323L82.6085 71.1601C78.5439 77.4561 75.286 84.3638 72.8047 91.3828C72.3753 92.5982 71.9733 93.827 71.5465 95.0479C80.7754 92.8942 89.7696 89.7628 97.2444 85.7043C99.4498 84.5064 101.992 83.0066 104.408 81.1738C102.833 77.9673 100.376 75.0283 97.6971 72.3677L97.3267 72.0023C96.827 71.5122 96.3123 71.0186 95.7858 70.5225ZM39.4371 71.7378C39.0535 72.4165 38.6825 73.1132 38.324 73.8279C35.2795 79.8974 34.1811 86.3357 35.6656 92.4725C36.7997 92.9515 37.9705 93.3545 39.1603 93.6744C42.1281 94.4723 45.2021 94.7512 48.1077 94.4165C44.3965 90.0207 41.5007 84.8411 40.4684 79.6706C39.9706 77.177 39.5926 74.4879 39.4371 71.7378ZM47.1782 62.1289C44.3498 64.5381 41.9715 67.4612 39.9431 70.8655C40.0613 73.8683 40.4582 76.8256 41.0048 79.5635C42.0375 84.7361 44.9859 89.9405 48.7536 94.3312C50.785 94.0302 52.7224 93.4208 54.4691 92.4684C60.2944 89.2946 62.43 84.4362 65.265 79.0367C66.6738 76.3536 67.7972 73.6162 69.0683 70.9063C69.5737 69.8291 70.1009 68.7601 70.6758 67.7087C66.6618 66.5764 62.6929 65.352 58.9542 64.3839C54.9434 63.3438 51.0459 62.4812 47.1782 62.1289ZM39.9504 62.1467C38.517 62.3004 37.0806 62.5528 35.6368 62.9212C30.2811 64.286 25.7818 66.7384 23.6019 71.8055C21.7395 76.1432 23.2405 81.3146 25.9931 85.1013L26.1342 85.2927C28.3142 88.2101 31.4739 90.5844 35.04 92.1989C33.6632 86.0404 34.8089 79.6154 37.835 73.5827C38.3294 72.597 38.8475 71.6443 39.3904 70.7254C39.2873 67.8638 39.436 64.9544 39.9504 62.1467ZM108.135 78.6896C107.172 79.6391 106.146 80.5211 105.094 81.3379C105.73 82.7055 106.21 84.1248 106.483 85.5944C106.963 84.374 107.362 83.1225 107.652 81.8613C107.894 80.8054 108.06 79.7442 108.135 78.6896ZM104.155 67.5609C101.798 68.9387 99.1836 69.854 96.4501 70.398C97.0096 70.9286 97.5551 71.4561 98.0823 71.9793C100.743 74.6211 103.23 77.5784 104.851 80.8337C106.012 79.9266 107.137 78.9409 108.175 77.8733C108.254 74.7692 107.503 71.7493 105.535 69.119C105.128 68.5747 104.664 68.0533 104.155 67.5609ZM110.854 60.0762C110.32 61.8536 109.264 63.5046 107.593 65.035C106.671 65.8797 105.682 66.6214 104.639 67.269C105.129 67.7517 105.577 68.2609 105.974 68.7913L106.109 68.9756C107.939 71.5077 108.702 74.3648 108.726 77.288C109.833 76.0784 110.82 74.7685 111.618 73.3529C114.126 68.9057 113.703 64.004 110.854 60.0762ZM88.9296 64.381C88.3044 64.7052 87.7098 65.0847 87.1511 65.51C85.4698 66.7889 84.3956 68.3656 83.3328 70.026C83.6499 70.071 83.966 70.1135 84.2811 70.1523C87.934 70.6033 91.7033 70.6342 95.2841 70.0527C93.2646 68.1702 91.0891 66.259 88.9296 64.381ZM80.808 57.1733C78.2867 58.8298 76.1039 60.9553 74.1153 63.4519C73.1155 64.7071 72.2603 66.0187 71.4916 67.3691C75.2672 68.423 79.0618 69.3753 82.7392 69.9386C83.8458 68.2016 84.99 66.4664 86.8196 65.0745L87.0232 64.9226C87.4885 64.5824 87.9773 64.2719 88.4871 63.9962C87.4255 63.0741 86.3709 62.1609 85.3429 61.2648L84.5247 60.5499C83.3049 59.4821 82.0449 58.3502 80.808 57.1733ZM94.576 63.1729C92.7424 63.0506 91.0167 63.4147 89.4641 64.1207C91.6752 66.0447 93.9031 68.0066 95.9596 69.9355C98.7251 69.4225 101.365 68.5316 103.736 67.1712C101.242 64.9413 97.8141 63.3876 94.576 63.1729ZM46.4145 62.0662C44.4462 61.9217 42.4841 61.9156 40.5172 62.0913C40.0397 64.6261 39.8668 67.254 39.914 69.8623C41.7725 66.8791 43.9158 64.2712 46.4145 62.0662ZM74.9601 50.8053C72.8661 51.5445 70.7458 52.1991 68.6163 52.8346C64.4588 54.0754 60.2716 55.2433 56.1478 56.8332C52.9878 58.0515 50.2159 59.6597 47.7709 61.637C51.5077 62.0218 55.2599 62.8607 59.0915 63.8542C62.9034 64.8413 66.9115 66.0793 70.949 67.2168C71.746 65.8054 72.6375 64.4291 73.6873 63.1111C75.6788 60.6109 77.8706 58.4677 80.4024 56.7852C78.423 54.8775 76.5215 52.858 74.9601 50.8053ZM107.912 57.0454C102.396 52.7118 95.1385 52.4933 88.797 53.8565C85.9709 54.4641 83.4972 55.4896 81.2828 56.8695C82.4797 58.0049 83.6993 59.1003 84.8852 60.1384L85.7014 60.8514C86.7814 61.7929 87.8929 62.7552 89.0125 63.728C90.6966 62.9196 92.5898 62.4921 94.6124 62.627L94.8129 62.642C98.1706 62.9186 101.685 64.553 104.229 66.8793C105.289 66.2311 106.292 65.4848 107.223 64.6316C108.954 63.0467 109.978 61.3494 110.437 59.5304C109.754 58.6783 108.952 57.8775 108.036 57.1439L107.912 57.0454ZM70.671 38.0026C60.9908 39.6831 52.4279 43.4009 45.8949 50.6484L45.7289 50.8336C43.0411 53.8556 41.4502 57.5683 40.6278 61.5323C42.7557 61.3527 44.8753 61.3817 46.9983 61.564C49.5876 59.3914 52.5475 57.6349 55.951 56.3227C60.1003 54.723 64.3157 53.5473 68.46 52.3105C70.5329 51.6919 72.5891 51.0574 74.6162 50.3465C72.1238 46.9698 70.2934 43.3588 70.5485 39.1615C70.5724 38.7677 70.6135 38.3813 70.671 38.0026ZM89.4652 38.354C89.2643 39.6367 88.8425 40.8882 88.2429 42.0382C86.56 45.2663 84.0626 46.8882 80.8422 48.4121C79.0901 49.2416 77.306 49.9606 75.5014 50.6122C77.0461 52.6218 78.9206 54.6025 80.8744 56.4798C83.1675 55.032 85.7371 53.9546 88.6819 53.3215C95.0967 51.9426 102.551 52.1373 108.25 56.6153C109.126 57.3037 109.905 58.0524 110.583 58.8486C110.903 57.0113 110.687 55.0321 110.039 52.8939C108.765 48.6909 105.448 45.7865 101.387 43.4077L100.992 43.179C97.1079 40.9592 93.3443 39.349 89.4652 38.354ZM88.9323 38.2212C83.9712 37.0241 78.8044 36.8283 72.9413 37.6477C72.3707 37.7273 71.8035 37.8137 71.2402 37.9065C71.17 38.326 71.1212 38.7556 71.0945 39.1948C70.8477 43.2562 72.6401 46.7773 75.1553 50.1551C77.0014 49.4931 78.8223 48.7631 80.608 47.9177C83.7886 46.4126 86.1568 44.8562 87.7578 41.7853C88.3404 40.6677 88.7447 39.4568 88.9323 38.2212ZM87.6939 31.8398C85.3346 28.0767 80.905 27.5148 77.2557 29.6195C74.1442 31.4142 72.0694 34.0481 71.3506 37.3337C71.8529 37.2525 72.358 37.1768 72.8656 37.1059C78.7761 36.28 83.9939 36.4748 89.0009 37.6746C89.1938 35.7258 88.8383 33.7407 87.7826 31.984L87.6939 31.8398Z" stroke="#2C114F"/>
<path d="M53.2403 111.792C54.2282 111.792 55.029 110.993 55.029 110.008C55.029 109.022 54.2282 108.224 53.2403 108.224C52.2525 108.224 51.4517 109.022 51.4517 110.008C51.4517 110.993 52.2525 111.792 53.2403 111.792Z" stroke="#2C114F"/>
<path d="M81.4842 107.796C82.4721 107.796 83.2729 106.997 83.2729 106.012C83.2729 105.027 82.4721 104.228 81.4842 104.228C80.4964 104.228 79.6956 105.027 79.6956 106.012C79.6956 106.997 80.4964 107.796 81.4842 107.796Z" stroke="#2C114F"/>
<path d="M55.2677 65.0283C56.2556 65.0283 57.0564 64.2295 57.0564 63.2441C57.0564 62.2588 56.2556 61.46 55.2677 61.46C54.2799 61.46 53.4791 62.2588 53.4791 63.2441C53.4791 64.2295 54.2799 65.0283 55.2677 65.0283Z" stroke="#2C114F"/>
<path d="M100.356 76.8894C101.344 76.8894 102.145 76.0906 102.145 75.1052C102.145 74.1199 101.344 73.3211 100.356 73.3211C99.3684 73.3211 98.5676 74.1199 98.5676 75.1052C98.5676 76.0906 99.3684 76.8894 100.356 76.8894Z" stroke="#2C114F"/>
<path d="M81.4842 38.5154C82.4721 38.5154 83.2729 37.7166 83.2729 36.7313C83.2729 35.7459 82.4721 34.9471 81.4842 34.9471C80.4964 34.9471 79.6956 35.7459 79.6956 36.7313C79.6956 37.7166 80.4964 38.5154 81.4842 38.5154Z" stroke="#2C114F"/>
<path d="M22.4996 80.162C23.4874 80.162 24.2882 79.3632 24.2882 78.3778C24.2882 77.3925 23.4874 76.5937 22.4996 76.5937C21.5117 76.5937 20.7109 77.3925 20.7109 78.3778C20.7109 79.3632 21.5117 80.162 22.4996 80.162Z" stroke="#2C114F"/>
<path d="M43.6013 100.898C44.5891 100.898 45.3899 100.099 45.3899 99.1137C45.3899 98.1284 44.5891 97.3296 43.6013 97.3296C42.6135 97.3296 41.8127 98.1284 41.8127 99.1137C41.8127 100.099 42.6135 100.898 43.6013 100.898Z" stroke="#2C114F"/>
<path d="M98.5689 43.3747C99.5568 43.3747 100.358 42.5759 100.358 41.5905C100.358 40.6051 99.5568 39.8063 98.5689 39.8063C97.5811 39.8063 96.7803 40.6051 96.7803 41.5905C96.7803 42.5759 97.5811 43.3747 98.5689 43.3747Z" stroke="#2C114F"/>
<path d="M51.4516 46.9431C52.4394 46.9431 53.2402 46.1443 53.2402 45.1589C53.2402 44.1736 52.4394 43.3748 51.4516 43.3748C50.4637 43.3748 49.6629 44.1736 49.6629 45.1589C49.6629 46.1443 50.4637 46.9431 51.4516 46.9431Z" stroke="#2C114F"/>
</svg>

