<svg width="1920" height="1920" viewBox="0 0 1920 1920" fill="none" xmlns="http://www.w3.org/2000/svg">
<rect width="1920" height="1920" fill="#0B041B"/>
<path opacity="0.4" d="M-108.849 -249.688C113.448 -218.273 599.846 30.7105 697.496 287.393C795.146 544.075 403.108 492.171 402.286 352.146C401.464 212.12 707.936 148.549 1079.85 621.994" stroke="#5C259E" stroke-width="18"/>
<path opacity="0.4" d="M-172.249 1441.19C263.846 970.683 133.073 1470.17 71.796 1742.08C-6.59467 2089.93 936.137 1214.36 835.538 1969.89" stroke="#5C259E" stroke-width="18"/>
<path opacity="0.3" d="M1500 200C1400 100 1600 300 1700 400C1800 500 1900 400 2000 500" stroke="#5C259E" stroke-width="12"/>
<path opacity="0.3" d="M1800 800C1900 700 2000 900 2100 1000" stroke="#5C259E" stroke-width="12"/>
<path opacity="0.35" d="M100 1200C200 1100 300 1300 400 1400C500 1500 600 1400 700 1500" stroke="#5C259E" stroke-width="14"/>
<path opacity="0.3" d="M-200 600C-100 500 0 700 100 800C200 900 300 800 400 900" stroke="#5C259E" stroke-width="12"/>
<path opacity="0.4" d="M1200 -100C1300 -200 1400 0 1500 100C1600 200 1700 100 1800 200" stroke="#5C259E" stroke-width="16"/>
<path opacity="0.35" d="M800 1600C900 1500 1000 1700 1100 1800C1200 1900 1300 1800 1400 1900" stroke="#5C259E" stroke-width="14"/>
</svg>

